<svg width="24" height="24" viewBox="0 0 24 24" fill="none" xmlns="http://www.w3.org/2000/svg">
<path d="M17.5 1.16113C18.05 1.16113 18.5 1.61113 18.5 2.16113V4.16113H20.5C21.05 4.16113 21.5 4.61113 21.5 5.16113C21.5 5.71113 21.05 6.16113 20.5 6.16113H18.5V8.16113C18.5 8.71113 18.05 9.16113 17.5 9.16113C16.95 9.16113 16.5 8.71113 16.5 8.16113V6.16113H14.5C13.95 6.16113 13.5 5.71113 13.5 5.16113C13.5 4.61113 13.95 4.16113 14.5 4.16113H16.5V2.16113C16.5 1.61113 16.95 1.16113 17.5 1.16113ZM10.5 13.1611C11.6 13.1611 12.5 12.2611 12.5 11.1611C12.5 10.0611 11.6 9.16113 10.5 9.16113C9.4 9.16113 8.5 10.0611 8.5 11.1611C8.5 12.2611 9.4 13.1611 10.5 13.1611ZM13.22 3.63113C12.78 3.99113 12.5 4.54113 12.5 5.16113C12.5 6.26113 13.4 7.16113 14.5 7.16113H15.5V8.16113C15.5 9.26113 16.4 10.1611 17.5 10.1611C17.82 10.1611 18.12 10.0811 18.39 9.95113C18.46 10.4011 18.5 10.8711 18.5 11.3611C18.5 14.5411 16.05 18.2811 11.16 22.5911C10.78 22.9211 10.21 22.9211 9.83 22.5911C4.95 18.2811 2.5 14.5411 2.5 11.3611C2.5 6.38113 6.3 3.16113 10.5 3.16113C11.44 3.16113 12.36 3.32113 13.22 3.63113Z" fill="#D32323"/>
</svg>
