<svg width="24" height="24" viewBox="0 0 24 24" fill="none" xmlns="http://www.w3.org/2000/svg">
<g id="map">
<path id="Vector" d="M14.655 4.97999L9.655 3.22999C9.235 3.07999 8.77501 3.07999 8.35501 3.21999L4.36501 4.55999C3.55501 4.83999 3.005 5.59999 3.005 6.45999V18.31C3.005 19.72 4.415 20.68 5.725 20.17L8.655 19.03C8.875 18.94 9.12501 18.94 9.34501 19.02L14.345 20.77C14.765 20.92 15.225 20.92 15.645 20.78L19.635 19.44C20.445 19.17 20.995 18.4 20.995 17.54V5.68999C20.995 4.27999 19.585 3.31999 18.275 3.82999L15.345 4.96999C15.125 5.04999 14.885 5.05999 14.655 4.97999ZM15.005 18.89L9.005 16.78V5.10999L15.005 7.21999V18.89Z" fill="#D32323"/>
</g>
</svg>
