<svg width="24" height="24" viewBox="0 0 24 24" fill="none" xmlns="http://www.w3.org/2000/svg">
<path d="M11.2087 8.53994C11.2087 7.98994 10.7587 7.53994 10.2087 7.53994H3.20874C2.65874 7.53994 2.20874 7.98994 2.20874 8.53994C2.20874 9.08994 2.65874 9.53994 3.20874 9.53994H10.2087C10.7587 9.53994 11.2087 9.08994 11.2087 8.53994ZM11.2087 16.5399C11.2087 15.9899 10.7587 15.5399 10.2087 15.5399H3.20874C2.65874 15.5399 2.20874 15.9899 2.20874 16.5399C2.20874 17.0899 2.65874 17.5399 3.20874 17.5399H10.2087C10.7587 17.5399 11.2087 17.0899 11.2087 16.5399ZM17.2587 10.8299C16.8687 11.2199 16.2387 11.2199 15.8487 10.8299L13.7287 8.70994C13.3387 8.31994 13.3387 7.68994 13.7287 7.29994C14.1187 6.90994 14.7487 6.90994 15.1387 7.29994L16.5487 8.70994L20.0887 5.16994C20.4787 4.77994 21.1087 4.77994 21.4987 5.16994C21.8887 5.55994 21.8887 6.18994 21.4987 6.57994L17.2587 10.8299ZM17.2587 18.8299C16.8687 19.2199 16.2387 19.2199 15.8487 18.8299L13.7287 16.7099C13.3387 16.3199 13.3387 15.6899 13.7287 15.2999C14.1187 14.9099 14.7487 14.9099 15.1387 15.2999L16.5487 16.7099L20.0887 13.1699C20.4787 12.7799 21.1087 12.7799 21.4987 13.1699C21.8887 13.5599 21.8887 14.1899 21.4987 14.5799L17.2587 18.8299Z" fill="#D32323"/>
</svg>
